<?xml version="1.0" encoding="UTF-8" standalone="no"?>
<svg
   xmlns:dc="http://purl.org/dc/elements/1.1/"
   xmlns:cc="http://creativecommons.org/ns#"
   xmlns:rdf="http://www.w3.org/1999/02/22-rdf-syntax-ns#"
   xmlns:svg="http://www.w3.org/2000/svg"
   xmlns="http://www.w3.org/2000/svg"
   xmlns:sodipodi="http://sodipodi.sourceforge.net/DTD/sodipodi-0.dtd"
   xmlns:inkscape="http://www.inkscape.org/namespaces/inkscape"
   width="991.43445"
   height="992.96783"
   viewBox="0 0 991.43445 992.96783"
   version="1.1"
   id="svg2216"
   inkscape:version="1.0.1 (3bc2e813f5, 2020-09-07)"
   sodipodi:docname="sports-basketball-circle-monogram-ff8811.svg">
  <defs
     id="defs2210" />
  <sodipodi:namedview
     id="base"
     pagecolor="#ffffff"
     bordercolor="#666666"
     borderopacity="1.0"
     inkscape:pageopacity="0.0"
     inkscape:pageshadow="2"
     inkscape:zoom="0.49497475"
     inkscape:cx="738.37911"
     inkscape:cy="515.64963"
     inkscape:document-units="px"
     inkscape:current-layer="layer1"
     showgrid="false"
     units="px"
     inkscape:window-width="1366"
     inkscape:window-height="705"
     inkscape:window-x="-8"
     inkscape:window-y="-8"
     inkscape:window-maximized="1"
     fit-margin-top="10"
     fit-margin-left="10"
     fit-margin-bottom="10"
     fit-margin-right="10"
     inkscape:showpageshadow="false"
     scale-x="1"
     inkscape:document-rotation="0" />
  <metadata
     id="metadata2213">
    <rdf:RDF>
      <cc:Work
         rdf:about="">
        <dc:format>image/svg+xml</dc:format>
        <dc:type
           rdf:resource="http://purl.org/dc/dcmitype/StillImage" />
        <dc:title />
      </cc:Work>
    </rdf:RDF>
  </metadata>
  <g
     inkscape:label="Layer 1"
     inkscape:groupmode="layer"
     id="layer1"
     transform="translate(539.96959,257.065)">
    

<g
       aria-label="s"
       style="font-style:normal;font-variant:normal;font-weight:normal;font-stretch:normal;font-size:5.33333px;line-height:1.25;font-family:'Open Sans';-inkscape-font-specification:'Open Sans, Normal';font-variant-ligatures:normal;font-variant-caps:normal;font-variant-numeric:normal;font-feature-settings:normal;text-align:start;letter-spacing:0px;word-spacing:0px;writing-mode:lr-tb;text-anchor:start;fill:#0000ff;fill-opacity:1;stroke:none"
       id="text824"
       transform="translate(251.00676,-148.87588)">
      <path
         d="m -112.9377,159.84904 c -54.6689,6.19326 -87.03272,38.03764 -101.27968,59.90179 -17.2092,26.23698 -28.14872,52.82971 -25.13998,95.49247 5.21919,0.98741 17.73438,1.62667 32.54558,1.20349 13.54167,-0.42317 56.13188,0.14106 62.05636,1.69271 0.42318,3.24436 0.63476,13.40061 0.63476,30.46875 0,16.50391 -0.0182,47.05659 -1.56986,49.73672 -26.3987,-9.89501 -42.78661,-26.15485 -54.35043,-49.10195 -8.81169,-0.12308 -19.31082,-0.12308 -30.7831,0 6.15854,18.59126 18.70887,34.4844 35.63596,52.82207 17.49132,18.90191 64.14498,34.90296 80.68641,35.75505 1.4106,-50.07595 0.77925,-99.08602 -0.63135,-149.30303 -4.93706,-0.98741 -15.16383,-1.199 -30.68033,-0.63477 -13.68272,0.42318 -56.06135,-0.42317 -61.4216,-2.53906 0,-11.14367 2.89171,-22.63998 8.67513,-34.48893 6.77083,-13.68273 20.89611,-47.7195 55.94727,-52.11031 0.7053,2.82118 -1.15545,34.9011 -1.29651,41.95405 -0.28212,7.19401 -0.0705,12.13108 0.63477,14.8112 10.15625,1.69271 21.06879,1.69271 30.23763,0 -0.34566,-28.12734 -0.77986,-74.28329 0.099,-95.66025 z"
         style="font-style:normal;font-variant:normal;font-weight:normal;font-stretch:normal;font-size:433.333px;font-family:'SunCatcherStudioFont left';-inkscape-font-specification:'SunCatcherStudioFont left';fill:#010101;fill-opacity:1"
         id="path825"
         inkscape:connector-curvature="0"
         sodipodi:nodetypes="cccccsccccccccccccccc" />
    </g>



<g
       aria-label="b"
       style="font-style:normal;font-variant:normal;font-weight:normal;font-stretch:normal;font-size:5.33333px;line-height:1.25;font-family:'Open Sans';-inkscape-font-specification:'Open Sans, Normal';font-variant-ligatures:normal;font-variant-caps:normal;font-variant-numeric:normal;font-feature-settings:normal;text-align:start;letter-spacing:0px;word-spacing:0px;writing-mode:lr-tb;text-anchor:start;fill:#010101;fill-opacity:1;stroke:none"
       id="text828"
       transform="translate(250.64017,-148.83979)">
      <path
         d="m -4.8958964,282.99543 c -6.7708336,1.69271 -46.4078006,1.69271 -51.7680436,0 -1.551649,-20.03038 -2.013397,-59.23697 -0.461748,-79.1263 19.264088,1.3009 47.6956834,32.06342 55.4036206,46.54166 6.4887153,14.95226 5.4307723,25.81381 -3.173829,32.58464 z m 1.018881,75.20693 c -11.4136906,24.49002 -47.6998086,40.34397 -52.0726386,40.06185 0,-1.83377 -0.996404,-35.71149 -1.56064,-53.06175 -0.423177,-12.83637 -0.141059,-22.92209 0.846354,-30.25716 0.282119,-0.28212 39.425379,-0.84636 50.2869246,-1.69271 11.56684,8.18143 14.06684,24.35516 2.5,44.94977 z M 34.016865,330.17967 c -0.282118,-3.52647 -3.930121,-8.81619 -8.44401,-15.86914 -4.37283,-6.77083 -6.488716,-12.13108 -6.347656,-16.08073 0,-3.80859 2.186414,-9.09831 6.559244,-15.86914 4.513889,-7.05295 6.841363,-12.13107 6.982422,-15.23437 0.282118,-6.91189 -4.513889,-19.74827 -14.38802,-38.50912 -21.6839425,-41.99505 -69.981834,-65.39881 -105.332964,-67.74879 0.705295,89.29037 0.556304,185.48983 0.415245,276.61396 23.355123,-0.75537 68.210903,-19.99317 87.48793688,-43.48245 8.32248332,-9.73307 15.38442612,-18.54027 19.75725612,-27.85016 8.322482,-17.9145 13.592664,-29.90452 13.310546,-35.97006 z"
         style="font-style:normal;font-variant:normal;font-weight:normal;font-stretch:normal;font-size:433.333px;font-family:'SunCatcherStudioFont right';-inkscape-font-specification:'SunCatcherStudioFont right';fill:#010101;fill-opacity:1"
         id="path825"
         inkscape:connector-curvature="0"
         sodipodi:nodetypes="cccccccccccccccccccccc" />
    </g>



<g
       id="g840"
       transform="matrix(3.2060993,0,0,3.2060993,-564.55146,-274.85537)">
      <path
         style="fill:#ffffff;fill-opacity:1;stroke:none;stroke-width:3;stroke-miterlimit:4;stroke-dasharray:none;stroke-opacity:1"
         d="m 161.29492,8.6679688 c -82.839466,0 -149.998045,67.1585942 -149.998045,149.9980512 0,82.83946 67.158579,149.99804 149.998045,149.99804 82.83945,0 149.99805,-67.15306 149.99805,-149.99804 0,-82.839457 -67.1586,-149.9980512 -149.99805,-149.9980512 z m 61.66797,76.0390622 a 47.954422,47.954422 0 0 1 47.95508,47.955079 47.954422,47.954422 0 0 1 -47.95508,47.95312 47.954422,47.954422 0 0 1 -47.95312,-47.95312 47.954422,47.954422 0 0 1 47.95312,-47.955079 z"
         id="path834"
         inkscape:connector-curvature="0" />
      <path
         d="m 312.28202,160.64411 c 0,82.84498 -67.15842,149.99788 -149.99787,149.99788 -82.839459,0 -149.997876,-67.15842 -149.997876,-149.99788 0,-82.839451 67.158417,-149.997873 149.997876,-149.997873 82.83945,0 149.99787,67.158422 149.99787,149.997873 z"
         id="path25"
         style="fill:none;fill-opacity:1;stroke:#010101;stroke-width:3;stroke-miterlimit:4;stroke-dasharray:none;stroke-opacity:1"
         inkscape:connector-curvature="0" />
      <path
         sodipodi:nodetypes="cccccccccccccccscccccccccccsccccccscccccccccccccscccsccccccccccccccscccccsccccc"
         d="m 127.90749,15.257597 c -2.3007,0.526252 -4.57477,1.118172 -6.83381,1.748925 -3.56657,2.342471 -7.17956,4.992857 -10.13724,7.578675 -10.78271,9.426472 -18.23857,18.175346 -27.464603,32.25795 -8.727939,13.779974 -14.981162,28.367304 -20.371478,41.456 -2.09985,4.828793 -9.196703,31.181133 -11.01175,40.937803 -0.689237,3.70513 -1.382765,6.88584 -1.5546,7.06047 -0.989959,1.00617 -11.245977,-3.582 -15.254772,-6.83381 -6.059831,-4.91565 -8.438472,-8.49506 -11.238722,-16.80937 -1.953303,-5.79991 -2.159857,-8.11667 -1.651814,-17.32758 -1.608389,3.97988 -3.071682,8.03687 -4.339925,12.1777 1.45e-4,0.011 -1.55e-4,0.0213 0,0.0323 0.01487,1.04894 0.07094,2.04451 0.161938,2.94731 2.027094,16.46322 14.451561,27.66463 32.030978,34.55773 0.257815,0.71252 0.07846,5.02654 -0.38865,9.5867 -0.467105,4.56016 -0.594375,12.93634 -0.291488,18.59094 0.448731,8.37732 0.294276,10.07598 -0.809687,9.19805 -12.329014,-3.12216 -26.030222,-6.44444 -36.0149,-11.49782 0.437091,3.38011 0.993524,6.73442 1.651814,10.04012 1.669848,0.74182 3.609367,1.44091 5.894525,2.13758 9.546384,3.2117 21.040993,6.0191 29.310429,8.48552 0.150288,11.5341 2.379781,17.72659 3.789285,28.7601 l 0.421038,3.49785 -9.489486,-0.55059 c -5.234753,-0.3123 -11.998163,0.58778 -12.803861,1.09783 -0.831938,0.82328 1.97725,5.40837 4.156443,8.8127 0.488859,-0.11764 1.270626,-0.42284 2.429114,-0.90685 1.942213,-0.81148 6.748622,-1.48983 10.687357,-1.48983 7.037052,0 7.2064,0.0724 8.517964,3.23875 2.717441,7.73528 6.264416,15.44133 9.619036,22.67125 2.505911,5.29684 7.624587,13.16436 13.60275,21.05136 2.406313,1.54631 4.854083,3.02712 7.352014,4.43704 -8.450598,-9.57769 -15.810282,-20.12275 -16.744078,-25.10058 -3.682122,-6.72748 -4.175656,-15.33768 -6.153625,-21.89395 -0.4174,-1.37178 -0.273859,-2.3319 0.356262,-2.3319 0.589121,0 6.365362,1.96896 12.82545,4.33993 14.124059,4.52264 29.144602,10.55366 40.355342,17.26228 22.78008,13.6784 44.34238,22.9604 66.71825,28.72797 8.5645,2.20743 17.26325,6.75519 30.96653,7.03211 7.50175,-2.20806 7.67582,-2.20372 9.43824,-4.2972 -1.79691,-1.28254 -14.12611,-2.3319 -25.31188,-5.39069 -18.70495,-4.99731 -33.89132,-10.15029 -51.88426,-19.07597 -4.84517,-2.42663 -15.10553,-7.62024 -22.8008,-11.56208 -10.57024,-6.57617 -23.97504,-10.60134 -34.557721,-15.41645 -1.796185,-0.82553 -9.139597,-3.39908 -16.3233,-5.73254 l -13.052422,-4.24281 -1.748925,-8.51797 c -1.869976,-9.1228 -3.842971,-23.7833 -3.271086,-24.3554 0.191413,-0.19142 4.011076,0.17835 8.485525,0.80969 4.47445,0.63134 20.255402,1.30928 35.075919,1.52226 22.73344,-0.68739 49.6674,0.24947 73.77925,-1.52226 4.75521,-0.0104 35.33191,-2.80066 56.28896,-5.14966 29.91775,-3.35328 60.58587,-11.18483 75.139,-19.1734 2.10047,-1.153 4.00071,-2.38352 5.47343,-3.46552 0.18116,-2.08327 0.32593,-4.17638 0.42104,-6.28317 -0.97202,-0.10105 -2.99126,0.69425 -7.06048,2.49378 -10.28896,4.55021 -33.92344,10.78685 -57.22897,15.09206 -13.03687,2.4087 -39.18006,5.55334 -64.41848,7.74066 -31.47443,2.7276 -119.217091,1.63316 -125.404399,-1.5546 -1.845414,-0.95128 -2.657226,-18.37951 -1.327835,-28.56525 l 0.809687,-6.2184 8.258864,-0.80969 c 10.675957,-1.05744 24.582372,-5.73119 36.306133,-12.20983 43.28628,-32.12114 88.92105,-64.015318 137.38518,-81.875599 11.33822,-3.938113 14.33341,-4.543578 24.67876,-5.05245 l 5.89452,-0.291488 c -1.99175,-2.055906 -4.04786,-4.052117 -6.15362,-5.991635 -0.82367,-0.0074 -1.72571,0 -2.75289,0 -12.09789,0 -27.2739,3.737258 -41.94207,10.331664 -30.57794,13.45869 -58.76284,31.332445 -84.82312,50.297528 -10.1789,7.42094 -20.67203,15.04749 -23.319,16.93892 -6.53481,4.66898 -19.428357,11.12887 -25.068445,12.56635 -2.543948,0.64845 -5.564225,1.59855 -6.704265,2.13758 -3.386126,1.60092 -14.165515,4.11326 -17.650928,4.11326 h -3.23875 l 0.842075,-6.4775 c 1.032638,-7.82886 4.065175,-25.22597 6.704264,-32.9057 C 75.968146,76.624758 101.99112,31.646034 127.90319,15.257441 Z"
         id="path27"
         style="fill:#0a0400;fill-opacity:1;stroke-width:1.0364"
         inkscape:connector-curvature="0" />
    </g>
  </g>
</svg>
